<svg id="visual" viewBox="0 0 900 150" width="900" height="150" xmlns="http://www.w3.org/2000/svg" xmlns:xlink="http://www.w3.org/1999/xlink" version="1.1"><path d="M0 31L13.7 35C27.3 39 54.7 47 82 46.8C109.3 46.7 136.7 38.3 163.8 40.3C191 42.3 218 54.7 245.2 55.7C272.3 56.7 299.7 46.3 327 47.7C354.3 49 381.7 62 409 63.8C436.3 65.7 463.7 56.3 491 55C518.3 53.7 545.7 60.3 573 63.5C600.3 66.7 627.7 66.3 654.8 62.5C682 58.7 709 51.3 736.2 50.8C763.3 50.3 790.7 56.7 818 53.8C845.3 51 872.7 39 886.3 33L900 27L900 151L886.3 151C872.7 151 845.3 151 818 151C790.7 151 763.3 151 736.2 151C709 151 682 151 654.8 151C627.7 151 600.3 151 573 151C545.7 151 518.3 151 491 151C463.7 151 436.3 151 409 151C381.7 151 354.3 151 327 151C299.7 151 272.3 151 245.2 151C218 151 191 151 163.8 151C136.7 151 109.3 151 82 151C54.7 151 27.3 151 13.7 151L0 151Z" fill="#0369a1"></path><path d="M0 103L13.7 99.3C27.3 95.7 54.7 88.3 82 87.2C109.3 86 136.7 91 163.8 93C191 95 218 94 245.2 90.2C272.3 86.3 299.7 79.7 327 78.7C354.3 77.7 381.7 82.3 409 87.5C436.3 92.7 463.7 98.3 491 100C518.3 101.7 545.7 99.3 573 97.3C600.3 95.3 627.7 93.7 654.8 86.5C682 79.3 709 66.7 736.2 64.2C763.3 61.7 790.7 69.3 818 73.2C845.3 77 872.7 77 886.3 77L900 77L900 151L886.3 151C872.7 151 845.3 151 818 151C790.7 151 763.3 151 736.2 151C709 151 682 151 654.8 151C627.7 151 600.3 151 573 151C545.7 151 518.3 151 491 151C463.7 151 436.3 151 409 151C381.7 151 354.3 151 327 151C299.7 151 272.3 151 245.2 151C218 151 191 151 163.8 151C136.7 151 109.3 151 82 151C54.7 151 27.3 151 13.7 151L0 151Z" fill="#0b86c5"></path><path d="M0 118L13.7 117.5C27.3 117 54.7 116 82 117C109.3 118 136.7 121 163.8 117.8C191 114.7 218 105.3 245.2 105C272.3 104.7 299.7 113.3 327 119.2C354.3 125 381.7 128 409 128.8C436.3 129.7 463.7 128.3 491 127C518.3 125.7 545.7 124.3 573 121.8C600.3 119.3 627.7 115.7 654.8 111C682 106.3 709 100.7 736.2 102.5C763.3 104.3 790.7 113.7 818 114.3C845.3 115 872.7 107 886.3 103L900 99L900 151L886.3 151C872.7 151 845.3 151 818 151C790.7 151 763.3 151 736.2 151C709 151 682 151 654.8 151C627.7 151 600.3 151 573 151C545.7 151 518.3 151 491 151C463.7 151 436.3 151 409 151C381.7 151 354.3 151 327 151C299.7 151 272.3 151 245.2 151C218 151 191 151 163.8 151C136.7 151 109.3 151 82 151C54.7 151 27.3 151 13.7 151L0 151Z" fill="#0ea5e9"></path></svg>